<svg width="140" height="76" viewBox="0 0 140 76" fill="none" xmlns="http://www.w3.org/2000/svg">
<path d="M19.6081 15.2257L13.7724 5.11106C12.8754 3.55642 11.5852 2.26557 10.0315 1.36835C8.47784 0.471132 6.71543 -0.000810018 4.9216 1.04363e-06H0L14.196 24.6071L19.6081 15.2257Z" fill="url(#paint0_linear_534_814)"/>
<path style="mix-blend-mode:multiply" opacity="0.64" d="M19.6081 15.2258L13.0498 22.6194L14.1961 24.6072L19.6081 15.2258Z" fill="url(#paint1_linear_534_814)"/>
<path d="M34.2899 6.99141e-07C32.4961 -0.00066308 30.7338 0.471339 29.1801 1.36854C27.6264 2.26575 26.3362 3.55652 25.4392 5.11106L5.30151 40.0231L39.2159 6.99141e-07H34.2899Z" fill="url(#paint2_linear_534_814)"/>
<path d="M5.30151 40.0231H10.2347C12.0285 40.0236 13.7908 39.5515 15.3444 38.6543C16.8981 37.7571 18.1883 36.4664 19.0855 34.912L39.2159 0L5.30151 40.0231Z" fill="url(#paint3_linear_534_814)"/>
<path d="M44.277 26.7053C43.0679 26.7053 42.0251 26.4957 41.1488 26.0766C40.3271 25.7039 39.6242 25.1115 39.1175 24.3647C38.6405 23.6452 38.3908 22.7988 38.4007 21.9355C38.3871 21.0711 38.6278 20.2218 39.0928 19.4932C39.5503 18.7817 40.2758 18.2304 41.2692 17.8394C42.2626 17.4483 43.5685 17.2547 45.1868 17.2586H49.3394V19.8925H45.6511C44.5793 19.8925 43.8432 20.0682 43.4427 20.4196C43.2512 20.5803 43.098 20.7819 42.9943 21.0095C42.8906 21.2371 42.8391 21.485 42.8435 21.7351C42.8346 22.0055 42.8928 22.274 43.0128 22.5164C43.1328 22.7589 43.3109 22.9678 43.5312 23.1247C43.9888 23.4674 44.6073 23.6382 45.387 23.6372C46.1182 23.6496 46.8397 23.4677 47.4778 23.1102C48.0978 22.755 48.5634 22.1814 48.7836 21.5013L49.4844 23.6372C49.1734 24.5872 48.5298 25.3926 47.6722 25.9053C46.7891 26.4386 45.6573 26.7053 44.277 26.7053ZM49.0651 26.4715V23.3991L48.7749 22.7254V17.2194C48.7749 16.2456 48.4775 15.4847 47.8826 14.9368C47.2877 14.3889 46.3765 14.116 45.149 14.1179C44.3112 14.1188 43.4787 14.2521 42.6824 14.5128C41.9304 14.7479 41.2239 15.1093 40.5931 15.5815L38.984 12.3871C39.9214 11.7297 40.9721 11.2513 42.0832 10.9758C43.2851 10.6565 44.5236 10.4954 45.7671 10.4966C48.1651 10.4966 50.0266 11.0619 51.3518 12.1925C52.677 13.3232 53.3396 15.0888 53.3396 17.4894V26.4715H49.0651Z" fill="#14468C"/>
<path d="M55.5901 14.5928V11.0818H66.4954V14.5928H55.5901ZM63.8938 26.7054C62.0424 26.7054 60.6002 26.232 59.5671 25.2853C58.534 24.3386 58.0175 22.9297 58.0175 21.0586V7.24854H62.6068V20.97C62.6068 21.6331 62.7776 22.15 63.119 22.5207C63.2967 22.7081 63.5128 22.8548 63.7525 22.9508C63.9922 23.0468 64.2498 23.0898 64.5076 23.0768C65.1791 23.0999 65.8387 22.8952 66.3793 22.496L67.5778 25.7151C67.0806 26.0689 66.5192 26.3224 65.9252 26.4615C65.2608 26.6269 64.5784 26.7088 63.8938 26.7054Z" fill="#14468C"/>
<path d="M77.138 26.7053C75.481 26.7053 74.0044 26.3539 72.7082 25.6512C71.4277 24.9798 70.3598 23.9641 69.6247 22.7184C68.8895 21.4728 68.5163 20.0466 68.5469 18.6002C68.5469 17.0204 68.9169 15.6212 69.6569 14.4025C70.3953 13.1858 71.4519 12.1942 72.7126 11.5348C74.0088 10.8426 75.4853 10.4966 77.1423 10.4966C78.8177 10.4966 80.3087 10.8426 81.6156 11.5348C82.8819 12.1909 83.9436 13.183 84.6843 14.4025C85.4253 15.6212 85.7957 17.0204 85.7957 18.6002C85.7957 20.18 85.4253 21.5749 84.6843 22.7849C83.9354 24.0009 82.8714 24.9914 81.6054 25.6512C80.3025 26.3539 78.8133 26.7053 77.138 26.7053ZM77.138 22.9606C77.858 22.9755 78.569 22.7986 79.1983 22.448C79.8084 22.0908 80.3053 21.5683 80.6318 20.9409C81.0054 20.2185 81.1905 19.4133 81.1701 18.6002C81.1701 17.6835 80.9902 16.9033 80.6304 16.2596C80.2972 15.6449 79.8012 15.134 79.1968 14.7829C78.5771 14.4349 77.8761 14.258 77.1655 14.2703C76.4501 14.2593 75.7442 14.436 75.1182 14.7829C74.5065 15.1302 74.0039 15.6416 73.6673 16.2596C73.3055 16.9043 73.1251 17.6845 73.1261 18.6002C73.1059 19.4137 73.2921 20.219 73.6673 20.9409C73.9968 21.5718 74.5004 22.0949 75.1182 22.448C75.735 22.7928 76.4315 22.9696 77.138 22.9606Z" fill="#14468C"/>
<path d="M95.4693 26.7054C94.1431 26.7054 92.9736 26.4517 91.9609 25.9445C90.9444 25.4362 90.1153 24.6182 89.5929 23.6082C89.0271 22.5541 88.7441 21.2279 88.7441 19.6297V10.7304H93.3059V18.9226C93.3059 20.2498 93.5835 21.2178 94.1387 21.8266C94.694 22.4355 95.4784 22.7428 96.4922 22.7486C97.1461 22.7604 97.7914 22.5986 98.3624 22.2797C98.9264 21.9505 99.3806 21.462 99.6683 20.8756C99.9904 20.2512 100.151 19.471 100.151 18.5349V10.7231H104.675V26.4716H100.352V22.1156L101.141 23.4035C100.636 24.4491 99.8187 25.3118 98.8021 25.8719C97.7801 26.429 96.633 26.7159 95.4693 26.7054Z" fill="#14468C"/>
<path d="M107.867 26.4714V23.6908L117.133 12.718L117.922 14.2397H108.04V10.7302H121.605V13.5094L112.338 24.4517L111.495 22.9605H121.869V26.4714H107.867Z" fill="#14468C"/>
<path d="M132.388 26.7053C130.595 26.7053 129.026 26.3539 127.682 25.6511C126.392 25.0004 125.308 24.0028 124.553 22.7703C123.801 21.5113 123.416 20.0668 123.442 18.6002C123.417 17.1352 123.786 15.6905 124.51 14.417C125.214 13.1952 126.247 12.1964 127.491 11.5347C128.82 10.8293 130.305 10.4721 131.808 10.4965C133.258 10.4747 134.69 10.8166 135.974 11.4912C137.195 12.1369 138.215 13.109 138.918 14.2993C139.639 15.5093 140 16.9613 140 18.6554C140 18.8296 139.99 19.03 139.971 19.255C139.952 19.4801 139.932 19.6906 139.912 19.8838H127.132V17.2193H137.51L135.726 18.015C135.762 17.2742 135.601 16.537 135.258 15.8791C134.94 15.2885 134.464 14.7975 133.884 14.4605C133.26 14.109 132.553 13.932 131.837 13.948C131.117 13.933 130.406 14.1099 129.777 14.4605C129.187 14.7967 128.705 15.2937 128.387 15.8936C128.042 16.5669 127.872 17.3156 127.89 18.0716V18.773C127.869 19.573 128.069 20.3633 128.471 21.0555C128.853 21.6928 129.411 22.2057 130.078 22.5322C130.76 22.8749 131.579 23.0457 132.535 23.0448C133.278 23.0582 134.017 22.929 134.711 22.6643C135.361 22.4015 135.952 22.0137 136.452 21.5231L138.878 24.157C138.134 24.9926 137.202 25.6396 136.159 26.0446C135.072 26.485 133.815 26.7053 132.388 26.7053Z" fill="#14468C"/>
<path d="M38.3992 38.7685V34.4009H40.3623C40.8585 34.4009 41.2329 34.504 41.4998 34.7102C41.6268 34.8063 41.7288 34.9315 41.7975 35.0753C41.8662 35.219 41.8994 35.3771 41.8945 35.5363C41.9007 35.746 41.8468 35.9531 41.7392 36.1331C41.6378 36.2951 41.4944 36.4266 41.3243 36.5135C41.1504 36.6035 40.9571 36.6493 40.7613 36.6471L40.8687 36.4235C41.0865 36.4195 41.3023 36.4652 41.4998 36.5571C41.6819 36.6419 41.8356 36.7775 41.9424 36.9477C42.056 37.1398 42.1119 37.3606 42.1034 37.5837C42.1111 37.7512 42.0778 37.9181 42.0065 38.0699C41.9352 38.2217 41.8281 38.3538 41.6943 38.4549C41.4215 38.664 41.0181 38.7671 40.4813 38.7671L38.3992 38.7685ZM39.1754 38.1325H40.4334C40.6632 38.1476 40.8926 38.0972 41.095 37.9873C41.1675 37.9303 41.226 37.8575 41.2663 37.7745C41.3065 37.6915 41.3275 37.6004 41.3275 37.5082C41.3275 37.4159 41.3065 37.3249 41.2663 37.2419C41.226 37.1589 41.1675 37.0861 41.095 37.029C40.8928 36.9184 40.6633 36.868 40.4334 36.8838H39.1159V36.2406H40.2767C40.493 36.2548 40.7087 36.2042 40.8962 36.0954C40.9638 36.0409 41.0182 35.9721 41.0557 35.8938C41.0931 35.8155 41.1125 35.7298 41.1125 35.6431C41.1125 35.5563 41.0931 35.4706 41.0557 35.3924C41.0182 35.3141 40.9638 35.2452 40.8962 35.1908C40.7087 35.0819 40.493 35.0314 40.2767 35.0456H39.1798L39.1754 38.1325Z" fill="#8C8C8C"/>
<path d="M43.421 40.0232C43.2604 40.0227 43.101 39.9952 42.9495 39.9419C42.8073 39.8958 42.677 39.819 42.5679 39.7168L42.8581 39.1491C42.9341 39.2156 43.0197 39.2704 43.112 39.3117C43.2032 39.3528 43.3021 39.3741 43.4022 39.3741C43.5208 39.3802 43.6374 39.3425 43.7301 39.2681C43.834 39.1667 43.9139 39.0431 43.9637 38.9066L44.1421 38.4826L44.2132 38.3824L45.4117 35.4377H46.1285L44.6427 39.0431C44.5637 39.2529 44.452 39.4489 44.3119 39.6239C44.2036 39.7572 44.0648 39.8623 43.9071 39.9302C43.7525 39.9919 43.5875 40.0235 43.421 40.0232ZM44.071 38.8877L42.6332 35.4377H43.4022L44.5774 38.3142L44.071 38.8877Z" fill="#8C8C8C"/>
<path d="M57.7284 38.8122C57.5161 38.8173 57.3053 38.7747 57.1117 38.6874C56.9451 38.6137 56.8031 38.4938 56.7026 38.3418C56.6057 38.1923 56.5552 38.0175 56.5575 37.8394C56.5552 37.6694 56.5972 37.5018 56.6793 37.353C56.7721 37.1971 56.9118 37.0746 57.0783 37.003C57.3156 36.9061 57.571 36.8615 57.827 36.8723H58.8253V37.3079H57.8531C57.563 37.3079 57.3743 37.3588 57.2728 37.4531C57.2251 37.5002 57.1876 37.5566 57.1626 37.6188C57.1376 37.681 57.1257 37.7477 57.1277 37.8147C57.1251 37.8896 57.1405 37.964 57.1725 38.0317C57.2046 38.0994 57.2524 38.1584 57.3119 38.2038C57.4615 38.3096 57.6428 38.3608 57.8256 38.349C58.0232 38.355 58.2184 38.3046 58.3885 38.2038C58.5508 38.1022 58.674 37.9487 58.7382 37.7682L58.8514 38.1806C58.7748 38.3767 58.6335 38.5407 58.4509 38.6452C58.2298 38.7659 57.9799 38.8237 57.7284 38.8122ZM58.7658 38.7759V38.0761L58.7368 37.9454V36.7533C58.7432 36.6458 58.7278 36.5381 58.6914 36.4367C58.655 36.3354 58.5983 36.2425 58.5249 36.1638C58.438 36.0887 58.3371 36.0316 58.2281 35.9957C58.119 35.9598 58.0039 35.9459 57.8894 35.9547C57.7024 35.9551 57.5168 35.988 57.341 36.052C57.1751 36.1087 57.0215 36.1964 56.8883 36.3104L56.6489 35.8618C56.8217 35.7185 57.0215 35.6113 57.2365 35.5467C57.4688 35.4735 57.7111 35.4367 57.9547 35.4378C58.389 35.4378 58.7232 35.5476 58.9573 35.7674C59.1914 35.9871 59.3084 36.3259 59.3084 36.7838V38.7803L58.7658 38.7759Z" fill="#8C8C8C"/>
<path d="M61.5622 38.812C61.3088 38.8137 61.0567 38.776 60.815 38.7002C60.614 38.6424 60.4249 38.5495 60.2563 38.4258L60.4958 37.9509C60.824 38.1711 61.2092 38.2907 61.6043 38.2951C61.8051 38.3109 62.0063 38.2696 62.1847 38.176C62.2404 38.1411 62.286 38.0921 62.3168 38.034C62.3476 37.9759 62.3626 37.9107 62.3602 37.845C62.3628 37.7989 62.3545 37.7529 62.3358 37.7107C62.3171 37.6686 62.2887 37.6315 62.2528 37.6025C62.1691 37.5386 62.0726 37.4935 61.9699 37.4703C61.8524 37.4413 61.7218 37.4152 61.5796 37.3934C61.4374 37.3716 61.2894 37.3411 61.1443 37.3063C61.0072 37.2745 60.8747 37.2257 60.7497 37.1611C60.631 37.0993 60.5308 37.0071 60.4595 36.8939C60.3818 36.7539 60.3446 36.595 60.3521 36.4351C60.348 36.2475 60.4045 36.0637 60.5132 35.9109C60.6295 35.7542 60.7881 35.6338 60.9702 35.5639C61.1934 35.4789 61.4309 35.438 61.6696 35.4433C61.8844 35.4416 62.0988 35.4655 62.308 35.5145C62.4944 35.5554 62.6715 35.6308 62.8303 35.7366L62.5851 36.2114C62.4506 36.115 62.2989 36.045 62.1382 36.0053C61.9858 35.9679 61.8294 35.9488 61.6725 35.9486C61.4773 35.9349 61.2824 35.9793 61.1124 36.0764C61.0562 36.1107 61.0097 36.1589 60.9774 36.2164C60.9452 36.2739 60.9282 36.3387 60.9281 36.4046C60.9252 36.4533 60.9336 36.502 60.9527 36.5468C60.9719 36.5917 61.0012 36.6315 61.0384 36.663C61.1236 36.7317 61.2226 36.7812 61.3286 36.8082C61.457 36.8437 61.5873 36.8718 61.7189 36.8924C61.864 36.9142 62.0091 36.9447 62.1542 36.9796C62.2899 37.0114 62.421 37.0602 62.5445 37.1248C62.6623 37.1852 62.7623 37.2753 62.8347 37.3861C62.9144 37.5222 62.9528 37.6787 62.945 37.8362C62.9494 38.0225 62.8905 38.2047 62.7781 38.3532C62.6557 38.5079 62.493 38.626 62.308 38.6944C62.0692 38.7809 61.816 38.8208 61.5622 38.812Z" fill="#8C8C8C"/>
<path d="M65.3373 38.8121C65.0259 38.8187 64.7183 38.7437 64.4449 38.5943C64.1944 38.4537 63.9879 38.2461 63.8486 37.9946C63.7043 37.7273 63.6313 37.4272 63.6368 37.1234C63.6319 36.8204 63.7027 36.521 63.8428 36.2522C63.9742 36.0058 64.1704 35.8 64.4101 35.6569C64.6565 35.5116 64.9382 35.4372 65.2241 35.442C65.5084 35.4357 65.7889 35.5092 66.0337 35.654C66.2702 35.7966 66.4618 36.0029 66.5865 36.2493C66.7239 36.5276 66.7921 36.8349 66.7853 37.1452C66.7853 37.1699 66.7853 37.1989 66.7853 37.2323C66.784 37.2634 66.7811 37.2945 66.7766 37.3253H64.0851V36.8897H66.4763L66.2427 37.0349C66.2498 36.8381 66.2069 36.6427 66.1179 36.4671C66.0358 36.306 65.9108 36.1708 65.7566 36.0765C65.5942 35.9852 65.4111 35.9372 65.2248 35.9372C65.0386 35.9372 64.8554 35.9852 64.693 36.0765C64.5373 36.171 64.4111 36.3074 64.3289 36.47C64.2389 36.6502 64.1941 36.8495 64.1983 37.0508V37.1496C64.1942 37.3554 64.2442 37.5587 64.3434 37.7391C64.4388 37.9097 64.5807 38.0497 64.7525 38.1428C64.9379 38.2409 65.145 38.2908 65.3547 38.288C65.5294 38.2902 65.7027 38.2566 65.864 38.1892C66.0194 38.1208 66.1573 38.0181 66.2673 37.8887L66.5836 38.2763C66.4403 38.4504 66.2571 38.5874 66.0497 38.6756C65.824 38.7693 65.5816 38.8157 65.3373 38.8121Z" fill="#8C8C8C"/>
<path d="M67.9434 40.023C67.7924 40.0231 67.6426 39.9966 67.5009 39.9446C67.3633 39.8955 67.2377 39.8178 67.1323 39.7166L67.3761 39.2679C67.4518 39.3439 67.5408 39.4055 67.6387 39.4494C67.735 39.4907 67.8387 39.5119 67.9434 39.5119C68.0683 39.5163 68.1907 39.4762 68.2887 39.3986C68.4052 39.2878 68.4937 39.151 68.547 38.9993L68.7429 38.5448L68.8024 38.4693L70.0429 35.468H70.603L69.0693 39.1053C68.9981 39.3038 68.8947 39.4893 68.7632 39.6542C68.6639 39.7794 68.536 39.879 68.3903 39.9446C68.248 40.0002 68.0961 40.0269 67.9434 40.023ZM68.6935 38.8817L67.2513 35.468H67.8476L69.0751 38.4185L68.6935 38.8817Z" fill="#8C8C8C"/>
<path d="M72.2486 38.812C72.0359 38.8171 71.8247 38.7745 71.6305 38.6872C71.4644 38.6134 71.3228 38.4935 71.2228 38.3416C71.126 38.1921 71.0755 38.0173 71.0777 37.8392C71.0755 37.6692 71.1175 37.5016 71.1996 37.3528C71.2926 37.1965 71.4328 37.074 71.6001 37.0028C71.8368 36.9059 72.0917 36.8613 72.3473 36.8722H73.3499V37.3078H72.372C72.0818 37.3078 71.8931 37.3586 71.7916 37.453C71.7441 37.5002 71.7067 37.5566 71.6818 37.6187C71.6568 37.6809 71.6448 37.7475 71.6465 37.8145C71.6439 37.8894 71.6593 37.9638 71.6914 38.0315C71.7234 38.0992 71.7712 38.1582 71.8308 38.2036C71.9799 38.3092 72.1606 38.3604 72.3429 38.3488C72.541 38.3548 72.7367 38.3045 72.9074 38.2036C73.0696 38.1023 73.1924 37.9487 73.2556 37.768L73.3688 38.1804C73.2928 38.3764 73.1519 38.5404 72.9697 38.645C72.749 38.7653 72.4997 38.8231 72.2486 38.812ZM73.2861 38.7757V38.0759L73.2556 37.9452V36.7531C73.2621 36.6456 73.2466 36.5379 73.2102 36.4365C73.1738 36.3352 73.1172 36.2423 73.0437 36.1636C72.957 36.0887 72.8564 36.0317 72.7475 35.9958C72.6387 35.9599 72.5239 35.9459 72.4097 35.9545C72.2226 35.9549 72.0371 35.9879 71.8612 36.0518C71.6949 36.1085 71.5408 36.1962 71.4071 36.3102L71.1691 35.8616C71.3398 35.7191 71.5371 35.612 71.7495 35.5465C71.9842 35.4724 72.229 35.4357 72.475 35.4376C72.9074 35.4376 73.2411 35.5474 73.4761 35.7672C73.7112 35.9869 73.8287 36.3257 73.8287 36.7836V38.7801L73.2861 38.7757Z" fill="#8C8C8C"/>
<path d="M57.4657 31.7394C57.4359 32.0397 57.2947 32.3179 57.0698 32.519C56.8449 32.7201 56.5528 32.8295 56.2513 32.8255H52.3047C51.9608 32.8255 51.6184 32.8255 51.276 32.8255C50.8707 32.8203 50.4686 32.898 50.0944 33.0538C49.7201 33.2096 49.3816 33.4402 49.0996 33.7315C49.0502 33.7824 49.0082 33.8433 48.9617 33.8971C48.9371 33.9246 48.895 33.9827 48.895 33.9827C48.895 33.9827 48.895 33.8796 48.8863 33.8259C48.8718 33.6705 48.866 33.5152 48.866 33.3569C48.866 33.3075 48.866 33.2567 48.866 33.2117C48.866 33.1115 48.866 33.0099 48.866 32.9112C48.8739 32.6593 48.9179 32.4099 48.9966 32.1706C49.014 32.1256 49.0328 32.0821 49.0517 32.0385C49.0897 31.9544 49.1323 31.8725 49.1794 31.7931C49.1997 31.7583 49.2215 31.7234 49.2447 31.6871C49.2679 31.6508 49.3114 31.5884 49.3477 31.5419C49.4057 31.4635 49.4667 31.388 49.5305 31.3154C49.561 31.2791 49.5943 31.2428 49.6263 31.2079C49.9182 30.9133 50.2833 30.7018 50.684 30.5952C50.9566 30.5219 51.2375 30.4843 51.5197 30.4834H56.289C56.451 30.4833 56.6112 30.5167 56.7596 30.5816C56.9081 30.6464 57.0415 30.7412 57.1516 30.8601C57.2617 30.979 57.346 31.1194 57.3993 31.2725C57.4526 31.4255 57.4738 31.5879 57.4614 31.7495L57.4657 31.7394Z" fill="#8C8C8C"/>
<path d="M56.035 34.4168C56.0474 34.5768 56.0266 34.7376 55.9739 34.8891C55.9211 35.0406 55.8376 35.1795 55.7286 35.2971C55.6195 35.4146 55.4873 35.5084 55.3403 35.5723C55.1932 35.6362 55.0346 35.6689 54.8743 35.6685H51.7243C51.6162 35.6685 51.5082 35.6743 51.4007 35.6859L51.3006 35.6961C51.228 35.7077 51.1555 35.7193 51.08 35.7367C50.9654 35.7599 50.8566 35.789 50.7536 35.8166C50.5489 35.8772 50.3517 35.961 50.166 36.0663C50.057 36.1287 49.9518 36.1975 49.8511 36.2725C49.7411 36.3511 49.6368 36.4375 49.5391 36.531C49.395 36.6745 49.2705 36.8366 49.1692 37.013C49.0528 37.2058 48.9699 37.4169 48.9239 37.6374C48.898 37.763 48.8848 37.891 48.8848 38.0193V36.9811C48.8848 36.5731 48.8848 36.1709 48.8848 35.7614C48.8848 35.6612 48.8848 35.5712 48.8848 35.4812C48.8859 35.1778 48.9595 34.8791 49.0995 34.61C49.1984 34.4244 49.3224 34.2534 49.468 34.1018C49.6627 33.9095 49.8884 33.7515 50.1355 33.6342H50.1442C50.5468 33.4398 50.9885 33.3404 51.4355 33.3438H54.8191C55.1194 33.3371 55.4113 33.4438 55.6366 33.6426C55.8619 33.8414 56.0041 34.1178 56.035 34.4168Z" fill="#8C8C8C"/>
<path d="M54.6008 36.3263C53.6403 36.3108 52.6701 36.3108 51.6902 36.3263H51.5277C51.3694 36.3357 51.2119 36.3556 51.0562 36.3858C50.5825 36.4853 50.1367 36.688 49.7503 36.9797C49.5221 37.1566 49.3295 37.3754 49.183 37.6244C49.0015 37.9436 48.9018 38.3027 48.8928 38.6699C48.8991 38.8206 48.9351 38.9686 48.9987 39.1055C49.1383 39.3815 49.3735 39.5972 49.6604 39.7124C49.908 39.8188 50.179 39.8589 50.4468 39.8285C50.7259 39.8203 50.997 39.7332 51.2288 39.5774C51.4448 39.4325 51.6082 39.2216 51.6946 38.9762C51.7279 38.8739 51.7464 38.7673 51.7497 38.6597C51.7499 38.5674 51.7567 38.4752 51.77 38.3838C51.8078 38.1044 51.9024 37.8357 52.0479 37.5942C52.1933 37.3527 52.3867 37.1436 52.6159 36.9797C53.3559 36.4062 54.299 36.3379 54.6008 36.3263Z" fill="#8C8C8C"/>
<path d="M43.874 71L48.242 61.2H50.482L54.864 71H52.484L48.9 62.348H49.796L46.198 71H43.874ZM46.058 68.9L46.66 67.178H51.7L52.316 68.9H46.058ZM55.8808 71V61.2H60.3328C61.3968 61.2 62.3348 61.4053 63.1468 61.816C63.9588 62.2173 64.5934 62.782 65.0508 63.51C65.5081 64.238 65.7368 65.1013 65.7368 66.1C65.7368 67.0893 65.5081 67.9527 65.0508 68.69C64.5934 69.418 63.9588 69.9873 63.1468 70.398C62.3348 70.7993 61.3968 71 60.3328 71H55.8808ZM58.1488 69.138H60.2208C60.8741 69.138 61.4388 69.0167 61.9147 68.774C62.4001 68.522 62.7734 68.1673 63.0348 67.71C63.3054 67.2527 63.4408 66.716 63.4408 66.1C63.4408 65.4747 63.3054 64.938 63.0348 64.49C62.7734 64.0327 62.4001 63.6827 61.9147 63.44C61.4388 63.188 60.8741 63.062 60.2208 63.062H58.1488V69.138ZM67.4472 71V61.2H69.3232L73.4952 68.116H72.5012L76.6032 61.2H78.4652L78.4932 71H76.3652L76.3512 64.462H76.7432L73.4672 69.964H72.4452L69.0992 64.462H69.5752V71H67.4472ZM80.8183 71V61.2H83.0863V71H80.8183ZM85.412 71V61.2H87.288L93.07 68.256H92.16V61.2H94.4V71H92.538L86.742 63.944H87.652V71H85.412Z" fill="#14468C"/>
<defs>
<linearGradient id="paint0_linear_534_814" x1="18.4618" y1="20.8595" x2="-5.61176" y2="-11.65" gradientUnits="userSpaceOnUse">
<stop stop-color="#658B3C"/>
<stop offset="0.45" stop-color="#678C3E"/>
<stop offset="0.61" stop-color="#6D9245"/>
<stop offset="0.73" stop-color="#779B50"/>
<stop offset="0.82" stop-color="#86A961"/>
<stop offset="0.9" stop-color="#9ABA77"/>
<stop offset="0.97" stop-color="#B1CF92"/>
<stop offset="1" stop-color="#BCD99E"/>
</linearGradient>
<linearGradient id="paint1_linear_534_814" x1="18.1426" y1="21.5943" x2="14.4595" y2="16.6209" gradientUnits="userSpaceOnUse">
<stop stop-color="#658B3C"/>
<stop offset="0.45" stop-color="#678C3E"/>
<stop offset="0.61" stop-color="#6D9245"/>
<stop offset="0.73" stop-color="#779B50"/>
<stop offset="0.82" stop-color="#86A961"/>
<stop offset="0.9" stop-color="#9ABA77"/>
<stop offset="0.97" stop-color="#B1CF92"/>
<stop offset="1" stop-color="#BCD99E"/>
</linearGradient>
<linearGradient id="paint2_linear_534_814" x1="35.1344" y1="-1.50137" x2="9.04978" y2="35.864" gradientUnits="userSpaceOnUse">
<stop stop-color="#658B3C"/>
<stop offset="0.45" stop-color="#678C3E"/>
<stop offset="0.61" stop-color="#6D9245"/>
<stop offset="0.73" stop-color="#779B50"/>
<stop offset="0.82" stop-color="#86A961"/>
<stop offset="0.9" stop-color="#9ABA77"/>
<stop offset="0.97" stop-color="#B1CF92"/>
<stop offset="1" stop-color="#BCD99E"/>
</linearGradient>
<linearGradient id="paint3_linear_534_814" x1="40.3128" y1="0.840714" x2="6.67218" y2="44.6733" gradientUnits="userSpaceOnUse">
<stop stop-color="#BCD99E"/>
<stop offset="0.1" stop-color="#A3C382"/>
<stop offset="0.22" stop-color="#8CAE68"/>
<stop offset="0.35" stop-color="#7B9F55"/>
<stop offset="0.5" stop-color="#6E9347"/>
<stop offset="0.68" stop-color="#678D3E"/>
<stop offset="1" stop-color="#658B3C"/>
</linearGradient>
</defs>
</svg>
