<svg width="18" height="18" viewBox="0 0 18 18" fill="none" xmlns="http://www.w3.org/2000/svg">
<path fill-rule="evenodd" clip-rule="evenodd" d="M2.25 13.5H5.25C5.475 13.5 5.625 13.425 5.775 13.275L14.025 5.025C14.325 4.725 14.325 4.275 14.025 3.975L11.025 0.975C10.725 0.675 10.275 0.675 9.975 0.975L1.725 9.225C1.575 9.375 1.5 9.525 1.5 9.75V12.75C1.5 13.2 1.8 13.5 2.25 13.5ZM3 10.05L10.5 2.55L12.45 4.5L4.95 12H3V10.05ZM15.75 17.25C16.2 17.25 16.5 16.95 16.5 16.5C16.5 16.05 16.2 15.75 15.75 15.75H2.25C1.8 15.75 1.5 16.05 1.5 16.5C1.5 16.95 1.8 17.25 2.25 17.25H15.75Z" fill="#737272"/>
<mask id="mask0_43_6985" style="mask-type:alpha" maskUnits="userSpaceOnUse" x="1" y="0" width="16" height="18">
<path fill-rule="evenodd" clip-rule="evenodd" d="M2.25 13.5H5.25C5.475 13.5 5.625 13.425 5.775 13.275L14.025 5.025C14.325 4.725 14.325 4.275 14.025 3.975L11.025 0.975C10.725 0.675 10.275 0.675 9.975 0.975L1.725 9.225C1.575 9.375 1.5 9.525 1.5 9.75V12.75C1.5 13.2 1.8 13.5 2.25 13.5ZM3 10.05L10.5 2.55L12.45 4.5L4.95 12H3V10.05ZM15.75 17.25C16.2 17.25 16.5 16.95 16.5 16.5C16.5 16.05 16.2 15.75 15.75 15.75H2.25C1.8 15.75 1.5 16.05 1.5 16.5C1.5 16.95 1.8 17.25 2.25 17.25H15.75Z" fill="white"/>
</mask>
<g mask="url(#mask0_43_6985)">
<rect width="18" height="18" fill="#14468C"/>
</g>
</svg>
